<svg width="48" height="48" viewBox="0 0 48 48" fill="none" xmlns="http://www.w3.org/2000/svg">
<path d="M33.666 3.94863C36.2252 3.95644 38.6773 4.99915 40.4869 6.84904C42.2965 8.69892 43.3165 11.2057 43.3241 13.8218V33.566C43.3165 36.1821 42.2965 38.6888 40.4869 40.5387C38.6773 42.3886 36.2252 43.4313 33.666 43.4391H14.352C11.7928 43.4313 9.34072 42.3886 7.53113 40.5387C5.72155 38.6888 4.70155 36.1821 4.69391 33.566V13.8218C4.70155 11.2057 5.72155 8.69892 7.53113 6.84904C9.34072 4.99915 11.7928 3.95644 14.352 3.94863H33.666ZM33.666 0H14.352C6.91545 0 0.831299 6.21964 0.831299 13.8218V33.566C0.831299 41.1681 6.91545 47.3878 14.352 47.3878H33.666C41.1026 47.3878 47.1867 41.1681 47.1867 33.566V13.8218C47.1867 6.21964 41.1026 0 33.666 0Z" fill="#6337C6"/>
<path d="M36.5633 13.8218C35.9903 13.8218 35.4301 13.6481 34.9537 13.3226C34.4772 12.9972 34.1059 12.5346 33.8866 11.9935C33.6673 11.4523 33.61 10.8568 33.7217 10.2822C33.8335 9.70773 34.1095 9.17999 34.5147 8.76579C34.9198 8.35158 35.4361 8.0695 35.9981 7.95523C36.5601 7.84095 37.1426 7.8996 37.672 8.12377C38.2014 8.34793 38.6539 8.72755 38.9722 9.2146C39.2906 9.70165 39.4605 10.2743 39.4605 10.8601C39.4613 11.2492 39.3869 11.6347 39.2416 11.9944C39.0963 12.3542 38.883 12.681 38.6138 12.9562C38.3446 13.2314 38.0248 13.4495 37.673 13.598C37.3211 13.7466 36.944 13.8226 36.5633 13.8218Z" fill="#6337C6"/>
<path d="M24.009 15.7957C25.5371 15.7957 27.0309 16.2589 28.3015 17.1268C29.5721 17.9947 30.5624 19.2282 31.1472 20.6714C31.7319 22.1147 31.8849 23.7027 31.5868 25.2349C31.2887 26.767 30.5528 28.1743 29.4723 29.2789C28.3918 30.3835 27.0151 31.1358 25.5163 31.4405C24.0176 31.7453 22.4641 31.5889 21.0523 30.9911C19.6405 30.3933 18.4339 29.3809 17.5849 28.0821C16.7359 26.7832 16.2828 25.2561 16.2828 23.694C16.285 21.5999 17.0997 19.5922 18.5482 18.1115C19.9966 16.6308 21.9606 15.7979 24.009 15.7957ZM24.009 11.847C21.717 11.847 19.4764 12.5419 17.5706 13.8436C15.6648 15.1454 14.1795 16.9956 13.3023 19.1604C12.4252 21.3251 12.1957 23.7071 12.6428 26.0052C13.09 28.3033 14.1937 30.4142 15.8145 32.071C17.4352 33.7279 19.5001 34.8562 21.7482 35.3133C23.9962 35.7704 26.3263 35.5358 28.4439 34.6391C30.5615 33.7425 32.3714 32.224 33.6448 30.2758C34.9182 28.3276 35.5979 26.0371 35.5979 23.694C35.5979 20.552 34.3769 17.5387 32.2036 15.3169C30.0303 13.0952 27.0826 11.847 24.009 11.847Z" fill="#6337C6"/>
</svg>
