<svg width="47" height="48" viewBox="0 0 47 48" fill="none" xmlns="http://www.w3.org/2000/svg">
<path d="M42.648 0.0529785H3.9609C1.84697 0.0529785 0 1.60789 0 3.74351V43.3799C0 45.5272 1.84697 47.4407 3.9609 47.4407H42.6366C44.7619 47.4407 46.3554 45.5145 46.3554 43.3799V3.74351C46.3678 1.60789 44.7619 0.0529785 42.648 0.0529785ZM14.3691 39.5529H7.72831V18.4453H14.3691V39.5529ZM11.2784 15.2361H11.2308C9.10551 15.2361 7.72934 13.6188 7.72934 11.5942C7.72934 9.53263 9.14173 7.95339 11.3146 7.95339C13.4875 7.95339 14.8172 9.521 14.8648 11.5942C14.8637 13.6188 13.4875 15.2361 11.2784 15.2361ZM38.6395 39.5529H31.9986V28.0117C31.9986 25.2467 31.0322 23.3576 28.6296 23.3576C26.794 23.3576 25.7076 24.6269 25.2243 25.8634C25.0433 26.3077 24.9946 26.9127 24.9946 27.5304V39.5529H18.3538V18.4453H24.9946V21.3827C25.9611 19.9759 27.4707 17.9513 30.9836 17.9513C35.3428 17.9513 38.6405 20.8888 38.6405 27.2216L38.6395 39.5529Z" fill="#6337C6"/>
</svg>
