<svg width="337" height="54" viewBox="0 0 337 54" fill="none" xmlns="http://www.w3.org/2000/svg">
<path d="M336.355 6.17391C336.341 4.7088 335.75 3.30828 334.71 2.27601C333.669 1.24373 332.263 0.662903 330.797 0.659454L295.531 0.548096C294.067 0.548385 292.662 1.12904 291.625 2.16275C290.588 3.19647 290.004 4.59889 290 6.06255V42.4188C290 45.4588 292.483 47.7639 295.531 47.7639H325.658L324.209 42.8642L336.355 54V6.17391ZM320.827 35.4934C320.827 35.4934 319.856 34.3364 319.045 33.342C322.581 32.3464 323.931 30.1694 323.931 30.1694C322.959 30.8133 321.918 31.3457 320.827 31.7562C319.568 32.2789 318.256 32.6667 316.915 32.9132C314.604 33.3375 312.234 33.3284 309.926 32.8865C308.569 32.6346 307.24 32.2466 305.96 31.7284C305.283 31.4693 304.625 31.1638 303.99 30.8141C303.909 30.7607 303.829 30.7339 303.747 30.6794C303.693 30.6527 303.666 30.6259 303.636 30.6259C303.15 30.3564 302.88 30.1682 302.88 30.1682C302.88 30.1682 304.175 32.2941 307.603 33.3152C306.793 34.3375 305.794 35.5212 305.794 35.5212C299.832 35.333 297.565 31.46 297.565 31.46C297.565 22.8787 301.451 15.9122 301.451 15.9122C305.336 13.0336 309.006 13.1149 309.006 13.1149L309.275 13.4378C304.418 14.8097 302.206 16.9344 302.206 16.9344C302.206 16.9344 302.799 16.6115 303.797 16.1806C306.685 14.9166 308.979 14.5937 309.926 14.4868C310.077 14.4554 310.231 14.4371 310.385 14.4322C312.193 14.1978 314.023 14.1798 315.835 14.3788C318.681 14.7054 321.438 15.5729 323.958 16.9344C323.958 16.9344 321.826 14.9133 317.238 13.5436L317.616 13.1137C317.616 13.1137 321.312 13.0325 325.172 15.9155C325.172 15.9155 329.058 22.8821 329.058 31.4633C329.058 31.4322 326.79 35.3052 320.827 35.4934Z" fill="#6337C6"/>
<path d="M308.28 23.0424C306.742 23.0424 305.528 24.3608 305.528 26.0011C305.528 27.6415 306.769 28.9599 308.28 28.9599C309.818 28.9599 311.033 27.6426 311.033 26.0011C311.06 24.3575 309.818 23.0424 308.28 23.0424Z" fill="#6337C6"/>
<path d="M318.129 23.0424C316.591 23.0424 315.376 24.3608 315.376 26.0011C315.376 27.6415 316.618 28.9599 318.129 28.9599C319.667 28.9599 320.881 27.6426 320.881 26.0011C320.881 24.3597 319.641 23.0424 318.129 23.0424Z" fill="#6337C6"/>
<path fill-rule="evenodd" clip-rule="evenodd" d="M240.018 24.1432C240.018 11.1132 229.64 0.548096 216.84 0.548096C204.041 0.548096 193.663 11.1132 193.663 24.1432C193.663 35.9196 202.137 45.681 213.219 47.4528V30.9657H207.332V24.1432H213.219V18.9449C213.219 13.0324 216.68 9.76386 221.974 9.76386C224.51 9.76386 227.163 10.2252 227.163 10.2252V16.0324H224.239C221.361 16.0324 220.461 17.8504 220.461 19.7191V24.1432H226.889L225.862 30.9657H220.462V47.4549C231.544 45.6842 240.018 35.9228 240.018 24.1432Z" fill="#6337C6"/>
<path d="M129.666 4.45665C132.225 4.46438 134.677 5.49651 136.487 7.32762C138.296 9.15873 139.316 11.64 139.324 14.2296V33.7734C139.316 36.3629 138.296 38.8442 136.487 40.6754C134.677 42.5065 132.225 43.5386 129.666 43.5463H110.352C107.793 43.5386 105.341 42.5065 103.531 40.6754C101.722 38.8442 100.702 36.3629 100.694 33.7734V14.2296C100.702 11.64 101.722 9.15873 103.531 7.32762C105.341 5.49651 107.793 4.46438 110.352 4.45665H129.666ZM129.666 0.548096H110.352C102.915 0.548096 96.8313 6.70461 96.8313 14.2296V33.7734C96.8313 41.2984 102.915 47.4549 110.352 47.4549H129.666C137.103 47.4549 143.187 41.2984 143.187 33.7734V14.2296C143.187 6.70461 137.103 0.548096 129.666 0.548096Z" fill="#6337C6"/>
<path d="M132.563 14.2296C131.99 14.2296 131.43 14.0576 130.954 13.7355C130.477 13.4133 130.106 12.9555 129.887 12.4198C129.667 11.8841 129.61 11.2946 129.722 10.7259C129.834 10.1573 130.109 9.63488 130.515 9.22488C130.92 8.81488 131.436 8.53566 131.998 8.42254C132.56 8.30942 133.143 8.36748 133.672 8.58937C134.201 8.81126 134.654 9.18702 134.972 9.66914C135.291 10.1512 135.461 10.7181 135.461 11.2979C135.461 11.6831 135.387 12.0647 135.242 12.4208C135.096 12.7768 134.883 13.1003 134.614 13.3727C134.345 13.6451 134.025 13.861 133.673 14.0081C133.321 14.1551 132.944 14.2304 132.563 14.2296Z" fill="#6337C6"/>
<path d="M120.009 16.1835C121.537 16.1835 123.031 16.642 124.302 17.501C125.572 18.3601 126.562 19.5811 127.147 21.0097C127.732 22.4383 127.885 24.0103 127.587 25.5268C127.289 27.0434 126.553 28.4365 125.472 29.5299C124.392 30.6232 123.015 31.3679 121.516 31.6695C120.018 31.9712 118.464 31.8164 117.052 31.2246C115.641 30.6329 114.434 29.6308 113.585 28.3451C112.736 27.0594 112.283 25.5479 112.283 24.0016C112.285 21.9288 113.1 19.9415 114.548 18.4758C115.997 17.0101 117.961 16.1857 120.009 16.1835ZM120.009 12.2749C117.717 12.2749 115.476 12.9627 113.571 14.2512C111.665 15.5398 110.179 17.3712 109.302 19.514C108.425 21.6568 108.196 24.0146 108.643 26.2894C109.09 28.5641 110.194 30.6536 111.814 32.2936C113.435 33.9336 115.5 35.0505 117.748 35.503C119.996 35.9554 122.326 35.7232 124.444 34.8356C126.561 33.9481 128.371 32.445 129.645 30.5166C130.918 28.5882 131.598 26.3209 131.598 24.0016C131.598 20.8915 130.377 17.9088 128.204 15.7096C126.03 13.5104 123.083 12.2749 120.009 12.2749Z" fill="#6337C6"/>
<path d="M42.648 1.59033H3.9609C1.84697 1.59033 0 3.12946 0 5.2434V44.4775C0 46.603 1.84697 48.497 3.9609 48.497H42.6366C44.7619 48.497 46.3554 46.5904 46.3554 44.4775V5.2434C46.3678 3.12946 44.7619 1.59033 42.648 1.59033ZM14.3691 40.6894H7.72831V19.796H14.3691V40.6894ZM11.2784 16.6193H11.2308C9.10551 16.6193 7.72934 15.0184 7.72934 13.0144C7.72934 10.9738 9.14173 9.41056 11.3146 9.41056C13.4875 9.41056 14.8172 10.9622 14.8648 13.0144C14.8637 15.0184 13.4875 16.6193 11.2784 16.6193ZM38.6395 40.6894H31.9986V29.2653C31.9986 26.5284 31.0322 24.6584 28.6296 24.6584C26.794 24.6584 25.7076 25.9148 25.2243 27.1388C25.0433 27.5785 24.9946 28.1774 24.9946 28.7889V40.6894H18.3538V19.796H24.9946V22.7036C25.9611 21.311 27.4707 19.307 30.9836 19.307C35.3428 19.307 38.6405 22.2146 38.6405 28.4832L38.6395 40.6894Z" fill="#6337C6"/>
</svg>
