<!DOCTYPE svg PUBLIC "-//W3C//DTD SVG 1.1//EN" "http://www.w3.org/Graphics/SVG/1.1/DTD/svg11.dtd">
<!-- Uploaded to: SVG Repo, www.svgrepo.com, Transformed by: SVG Repo Mixer Tools -->
<svg fill="#1c1f4b" width="100px" height="100px" viewBox="0 0 512 512" xmlns="http://www.w3.org/2000/svg">
<g id="SVGRepo_bgCarrier" stroke-width="0"/>
<g id="SVGRepo_tracerCarrier" stroke-linecap="round" stroke-linejoin="round"/>
<g id="SVGRepo_iconCarrier"> <g id="Coding"> <path d="M80.917,377.0605H202V439.16H139a9.8965,9.8965,0,1,0,0,19.7929H373a9.8965,9.8965,0,1,0,0-19.7929H310V377.0605H431.0864a49.9023,49.9023,0,0,0,49.5528-44.1254H31.36A49.91,49.91,0,0,0,80.917,377.0605Z"/> <path d="M431.0869,53.0474H80.9175A49.9181,49.9181,0,0,0,31,102.9648V313.1416H481V102.9648A49.9144,49.9144,0,0,0,431.0869,53.0474ZM201.2354,231.6016a9.8993,9.8993,0,1,1-16.4708,10.9863l-36-54a9.9133,9.9133,0,0,1,0-10.9863l36-54a9.8993,9.8993,0,0,1,16.4708,10.9863L168.9,183.0947Zm86.7128-117.5537-45,144a9.899,9.899,0,1,1-18.8964-5.9063l45-144a9.899,9.899,0,1,1,18.8964,5.9063Zm75.2872,74.54-36,54a9.8993,9.8993,0,0,1-16.4708-10.9863L343.1,183.0947l-32.335-48.5068a9.8993,9.8993,0,0,1,16.4708-10.9863l36,54A9.9133,9.9133,0,0,1,363.2354,188.5879Z"/> </g> </g>
</svg>