<svg width="47" height="54" fill="none" xmlns="http://www.w3.org/2000/svg"><path d="M46.355 6.174A5.566 5.566 0 0 0 40.797.659L5.531.55A5.534 5.534 0 0 0 0 6.062v36.356c0 3.04 2.483 5.345 5.531 5.345h30.127l-1.449-4.9L46.355 54V6.174Zm-15.527 29.32s-.972-1.158-1.783-2.152c3.536-.996 4.886-3.173 4.886-3.173a15.493 15.493 0 0 1-3.103 1.587c-1.26.523-2.572.91-3.913 1.157a18.96 18.96 0 0 1-6.989-.026 20.56 20.56 0 0 1-3.966-1.159 15.758 15.758 0 0 1-1.97-.914c-.081-.053-.161-.08-.243-.135-.054-.026-.081-.053-.111-.053-.486-.27-.756-.458-.756-.458s1.295 2.126 4.723 3.147c-.81 1.023-1.809 2.206-1.809 2.206-5.962-.188-8.229-4.061-8.229-4.061 0-8.581 3.886-15.548 3.886-15.548 3.885-2.878 7.555-2.797 7.555-2.797l.27.323c-4.858 1.372-7.07 3.496-7.07 3.496s.593-.323 1.591-.753c2.888-1.264 5.182-1.587 6.13-1.694.15-.032.304-.05.458-.055a22.929 22.929 0 0 1 5.45-.053 22.477 22.477 0 0 1 8.123 2.555s-2.132-2.02-6.72-3.39l.378-.43s3.696-.082 7.556 2.801c0 0 3.886 6.967 3.886 15.548 0-.03-2.268 3.842-8.23 4.03Z" fill="#6337C6"/><path d="M18.28 23.042c-1.538 0-2.752 1.319-2.752 2.96 0 1.64 1.241 2.958 2.752 2.958 1.538 0 2.752-1.317 2.752-2.959.028-1.643-1.214-2.959-2.752-2.959ZM28.129 23.042c-1.538 0-2.753 1.319-2.753 2.96 0 1.64 1.242 2.958 2.753 2.958 1.538 0 2.752-1.317 2.752-2.959 0-1.641-1.24-2.959-2.752-2.959Z" fill="#6337C6"/></svg>