<svg width="48" height="48" fill="none" xmlns="http://www.w3.org/2000/svg"><path d="M33.666 3.949a9.582 9.582 0 0 1 6.82 2.9 10.015 10.015 0 0 1 2.838 6.973v19.744a10.015 10.015 0 0 1-2.837 6.973 9.582 9.582 0 0 1-6.821 2.9H14.352a9.582 9.582 0 0 1-6.82-2.9 10.015 10.015 0 0 1-2.838-6.973V13.822A10.015 10.015 0 0 1 7.53 6.849a9.582 9.582 0 0 1 6.821-2.9h19.314Zm0-3.949H14.352C6.915 0 .832 6.22.832 13.822v19.744c0 7.602 6.083 13.822 13.52 13.822h19.314c7.437 0 13.52-6.22 13.52-13.822V13.822C47.187 6.22 41.104 0 33.667 0Z" fill="#6337C6"/><path d="M36.563 13.822a2.852 2.852 0 0 1-1.61-.5 2.948 2.948 0 0 1-1.066-1.329 3.024 3.024 0 0 1-.165-1.71 2.983 2.983 0 0 1 .793-1.517 2.878 2.878 0 0 1 1.483-.81 2.838 2.838 0 0 1 1.674.168c.53.224.982.604 1.3 1.09.319.488.489 1.06.489 1.646 0 .39-.074.775-.22 1.134a2.96 2.96 0 0 1-.627.962c-.27.275-.59.494-.941.642a2.836 2.836 0 0 1-1.11.224ZM24.009 15.796c1.528 0 3.022.463 4.293 1.33a7.864 7.864 0 0 1 2.845 3.545 8.063 8.063 0 0 1 .44 4.564 7.954 7.954 0 0 1-2.115 4.044 7.675 7.675 0 0 1-3.956 2.162 7.57 7.57 0 0 1-4.464-.45 7.766 7.766 0 0 1-3.467-2.909 8.024 8.024 0 0 1-1.302-4.388 7.997 7.997 0 0 1 2.265-5.582 7.65 7.65 0 0 1 5.461-2.316Zm0-3.949a11.41 11.41 0 0 0-6.438 1.997 11.795 11.795 0 0 0-4.269 5.316 12.093 12.093 0 0 0-.66 6.845 11.93 11.93 0 0 0 3.173 6.066 11.512 11.512 0 0 0 5.933 3.242c2.248.457 4.578.223 6.696-.674a11.647 11.647 0 0 0 5.2-4.363 12.035 12.035 0 0 0 1.954-6.582c0-3.142-1.221-6.155-3.394-8.377a11.462 11.462 0 0 0-8.195-3.47Z" fill="#6337C6"/></svg>