<svg width="47" height="48" fill="none" xmlns="http://www.w3.org/2000/svg"><path d="M42.648.053H3.961C1.847.053 0 1.608 0 3.743V43.38c0 2.147 1.847 4.06 3.96 4.06h38.677c2.125 0 3.718-1.925 3.718-4.06V3.744c.013-2.136-1.593-3.691-3.707-3.691Zm-28.279 39.5H7.73V18.445h6.64v21.108Zm-3.09-24.317h-.048c-2.125 0-3.502-1.617-3.502-3.642 0-2.061 1.413-3.64 3.586-3.64s3.502 1.567 3.55 3.64c-.001 2.025-1.377 3.642-3.587 3.642Zm27.36 24.317H32V28.012c0-2.765-.967-4.654-3.37-4.654-1.835 0-2.921 1.269-3.405 2.505-.18.445-.23 1.05-.23 1.667v12.023h-6.64V18.445h6.64v2.938c.967-1.407 2.477-3.432 5.99-3.432 4.359 0 7.657 2.938 7.657 9.27l-.002 12.332Z" fill="#6337C6"/></svg>