<svg width="337" height="54" fill="none" xmlns="http://www.w3.org/2000/svg"><path d="M336.355 6.174a5.567 5.567 0 0 0-5.558-5.515L295.531.55A5.527 5.527 0 0 0 290 6.062v36.356c0 3.04 2.483 5.345 5.531 5.345h30.127l-1.449-4.9L336.355 54V6.174Zm-15.528 29.32s-.971-1.158-1.782-2.152c3.536-.996 4.886-3.173 4.886-3.173a15.511 15.511 0 0 1-3.104 1.587c-1.259.523-2.571.91-3.912 1.157a18.96 18.96 0 0 1-6.989-.026 20.579 20.579 0 0 1-3.966-1.159 15.763 15.763 0 0 1-1.97-.914c-.081-.053-.161-.08-.243-.135-.054-.026-.081-.053-.111-.053-.486-.27-.756-.458-.756-.458s1.295 2.126 4.723 3.147c-.81 1.023-1.809 2.206-1.809 2.206-5.962-.188-8.229-4.061-8.229-4.061 0-8.581 3.886-15.548 3.886-15.548 3.885-2.878 7.555-2.797 7.555-2.797l.269.323c-4.857 1.372-7.069 3.496-7.069 3.496s.593-.323 1.591-.753c2.888-1.264 5.182-1.587 6.129-1.694.151-.032.305-.05.459-.055a22.927 22.927 0 0 1 5.45-.053 22.48 22.48 0 0 1 8.123 2.555s-2.132-2.02-6.72-3.39l.378-.43s3.696-.082 7.556 2.801c0 0 3.886 6.967 3.886 15.548 0-.03-2.268 3.842-8.231 4.03Z" fill="#6337C6"/><path d="M308.28 23.042c-1.538 0-2.752 1.319-2.752 2.96 0 1.64 1.241 2.958 2.752 2.958 1.538 0 2.753-1.317 2.753-2.959.027-1.643-1.215-2.959-2.753-2.959ZM318.129 23.042c-1.538 0-2.753 1.319-2.753 2.96 0 1.64 1.242 2.958 2.753 2.958 1.538 0 2.752-1.317 2.752-2.959 0-1.641-1.24-2.959-2.752-2.959Z" fill="#6337C6"/><path fill-rule="evenodd" clip-rule="evenodd" d="M240.018 24.143c0-13.03-10.378-23.595-23.178-23.595-12.799 0-23.177 10.565-23.177 23.595 0 11.777 8.474 21.538 19.556 23.31V30.966h-5.887v-6.823h5.887v-5.198c0-5.913 3.461-9.181 8.755-9.181 2.536 0 5.189.461 5.189.461v5.807h-2.924c-2.878 0-3.778 1.818-3.778 3.687v4.424h6.428l-1.027 6.823h-5.4v16.489c11.082-1.77 19.556-11.532 19.556-23.312Z" fill="#6337C6"/><path d="M129.666 4.457a9.631 9.631 0 0 1 6.821 2.87 9.865 9.865 0 0 1 2.837 6.903v19.543a9.866 9.866 0 0 1-2.837 6.902 9.631 9.631 0 0 1-6.821 2.871h-19.314a9.631 9.631 0 0 1-6.821-2.87 9.866 9.866 0 0 1-2.837-6.903V14.23a9.865 9.865 0 0 1 2.837-6.902 9.631 9.631 0 0 1 6.821-2.871h19.314Zm0-3.909h-19.314c-7.437 0-13.52 6.157-13.52 13.682v19.543c0 7.525 6.083 13.682 13.52 13.682h19.314c7.437 0 13.521-6.157 13.521-13.682V14.23c0-7.525-6.084-13.682-13.521-13.682Z" fill="#6337C6"/><path d="M132.563 14.23a2.87 2.87 0 0 1-1.609-.495 2.92 2.92 0 0 1-1.067-1.315 2.956 2.956 0 0 1 .628-3.195 2.866 2.866 0 0 1 3.157-.636c.529.222.982.598 1.3 1.08a2.978 2.978 0 0 1 .27 2.752c-.146.356-.359.68-.628.952a2.888 2.888 0 0 1-2.051.857ZM120.009 16.183c1.528 0 3.022.459 4.293 1.318 1.27.86 2.26 2.08 2.845 3.509.585 1.428.738 3 .44 4.517a7.844 7.844 0 0 1-2.115 4.003 7.696 7.696 0 0 1-3.956 2.14 7.642 7.642 0 0 1-4.464-.445 7.75 7.75 0 0 1-3.467-2.88 7.884 7.884 0 0 1 .963-9.87 7.69 7.69 0 0 1 5.461-2.292Zm0-3.908a11.49 11.49 0 0 0-6.438 1.976 11.697 11.697 0 0 0-4.269 5.263 11.859 11.859 0 0 0-.659 6.775 11.774 11.774 0 0 0 3.171 6.005 11.55 11.55 0 0 0 5.934 3.209c2.248.452 4.578.22 6.696-.667a11.626 11.626 0 0 0 5.201-4.32 11.83 11.83 0 0 0 1.953-6.514c0-3.11-1.221-6.093-3.394-8.292a11.522 11.522 0 0 0-8.195-3.435ZM42.648 1.59H3.961C1.847 1.59 0 3.13 0 5.243v39.234c0 2.126 1.847 4.02 3.96 4.02h38.677c2.125 0 3.718-1.907 3.718-4.02V5.243c.013-2.114-1.593-3.653-3.707-3.653Zm-28.279 39.1H7.73V19.795h6.64v20.893Zm-3.09-24.07h-.048c-2.125 0-3.502-1.602-3.502-3.606 0-2.04 1.413-3.603 3.586-3.603s3.502 1.551 3.55 3.603c-.001 2.004-1.377 3.605-3.587 3.605Zm27.36 24.07H32V29.264c0-2.737-.967-4.607-3.37-4.607-1.835 0-2.921 1.257-3.405 2.48-.18.44-.23 1.04-.23 1.65V40.69h-6.64V19.796h6.64v2.908c.967-1.393 2.477-3.397 5.99-3.397 4.359 0 7.657 2.908 7.657 9.176l-.002 12.206Z" fill="#6337C6"/></svg>