<svg width="47" height="54" viewBox="0 0 47 54" fill="none" xmlns="http://www.w3.org/2000/svg">
<path d="M46.3554 6.17391C46.3414 4.7088 45.75 3.30828 44.7095 2.27601C43.669 1.24373 42.2634 0.662903 40.7972 0.659454L5.53145 0.548096C4.06682 0.548385 2.66207 1.12904 1.62517 2.16275C0.588268 3.19647 0.00383485 4.59889 0 6.06255V42.4188C0 45.4588 2.48269 47.7639 5.53145 47.7639H35.658L34.2094 42.8642L46.3554 54V6.17391ZM30.8275 35.4934C30.8275 35.4934 29.8558 34.3364 29.0446 33.342C32.5814 32.3464 33.9308 30.1694 33.9308 30.1694C32.9594 30.8133 31.9184 31.3457 30.8275 31.7562C29.5679 32.2789 28.2565 32.6667 26.9151 32.9132C24.604 33.3375 22.234 33.3284 19.9261 32.8865C18.5686 32.6346 17.24 32.2466 15.9603 31.7284C15.2833 31.4693 14.6251 31.1638 13.9902 30.8141C13.9089 30.7607 13.8286 30.7339 13.7473 30.6794C13.6927 30.6527 13.6659 30.6259 13.6358 30.6259C13.15 30.3564 12.8803 30.1682 12.8803 30.1682C12.8803 30.1682 14.1752 32.2941 17.6028 33.3152C16.7927 34.3375 15.7943 35.5212 15.7943 35.5212C9.83158 35.333 7.56507 31.46 7.56507 31.46C7.56507 22.8787 11.4507 15.9122 11.4507 15.9122C15.3363 13.0336 19.0057 13.1149 19.0057 13.1149L19.2754 13.4378C14.4181 14.8097 12.2062 16.9344 12.2062 16.9344C12.2062 16.9344 12.799 16.6115 13.7974 16.1806C16.6846 14.9166 18.979 14.5937 19.9261 14.4868C20.0773 14.4554 20.2309 14.4371 20.3852 14.4322C22.1933 14.1978 24.023 14.1798 25.8354 14.3788C28.681 14.7054 31.4379 15.5729 33.9576 16.9344C33.9576 16.9344 31.8259 14.9133 27.2383 13.5436L27.616 13.1137C27.616 13.1137 31.3122 13.0325 35.1722 15.9155C35.1722 15.9155 39.0578 22.8821 39.0578 31.4633C39.0578 31.4322 36.7902 35.3052 30.8275 35.4934Z" fill="#6337C6"></path>
<path d="M18.2802 23.0424C16.7424 23.0424 15.5278 24.3608 15.5278 26.0011C15.5278 27.6415 16.7692 28.9599 18.2802 28.9599C19.8179 28.9599 21.0325 27.6426 21.0325 26.0011C21.0604 24.3575 19.8179 23.0424 18.2802 23.0424Z" fill="#6337C6"></path>
<path d="M28.1286 23.0424C26.5908 23.0424 25.3762 24.3608 25.3762 26.0011C25.3762 27.6415 26.6176 28.9599 28.1286 28.9599C29.6674 28.9599 30.8809 27.6426 30.8809 26.0011C30.8809 24.3597 29.6407 23.0424 28.1286 23.0424Z" fill="#6337C6"></path>
</svg>
