<svg xmlns="http://www.w3.org/2000/svg" id="Calque_principal" viewBox="73.81 72.48 759.19 220.37"><defs><style>.cls-1{fill:#1a64b7;}</style></defs><g><path d="M105.07666015625,75.083984375l-2.19287109375,6.884765625c-2.5498046875-1.1552734375-5.2197265625-1.7333984375-8.0068359375-1.7333984375-4.3525390625,0-6.5283203125,1.20703125-6.5283203125,3.62109375,0,1.2236328125,1.18994140625,2.3798828125,3.5703125,3.4677734375,3.603515625,1.6318359375,5.81396484375,2.75390625,6.6298828125,3.3662109375,2.37939453125,1.767578125,3.56982421875,4.130859375,3.56982421875,7.0888671875,0,4.2841796875-1.75146484375,7.5478515625-5.2529296875,9.7919921875-2.9580078125,1.9375-6.6982421875,2.9072265625-11.2197265625,2.9072265625-4.2509765625,0-8.1943359375-.646484375-11.83203125-1.9384765625l2.0400390625-7.29296875c2.92333984375,1.4619140625,5.7119140625,2.193359375,8.36376953125,2.193359375,1.93798828125,0,3.5869140625-.2724609375,4.94677734375-.81640625,1.90380859375-.78125,2.8564453125-1.9892578125,2.8564453125-3.62109375,0-1.59765625-1.17333984375-2.923828125-3.51904296875-3.9775390625-4.080078125-1.8017578125-6.29052734375-2.8056640625-6.63037109375-3.009765625-2.345703125-1.6318359375-3.51904296875-3.9599609375-3.51904296875-6.986328125,0-3.7744140625,1.59814453125-6.71484375,4.79443359375-8.8232421875,2.75390625-1.8017578125,6.11962890625-2.703125,10.09765625-2.703125,5.03173828125,0,8.97607421875,.52734375,11.83203125,1.5810546875Z"/><path d="M133.58544921875,98.9013671875h-18.81884765625c.33935546875,3.7734375,2.5830078125,5.6611328125,6.73193359375,5.6611328125,2.92333984375,0,5.8984375-.6630859375,8.9248046875-1.9892578125l-1.02001953125,6.4765625c-3.162109375,.986328125-6.392578125,1.4794921875-9.68994140625,1.4794921875-3.9443359375,0-7.0888671875-1.0537109375-9.43505859375-3.162109375-2.482421875-2.2099609375-3.72314453125-5.2529296875-3.72314453125-9.12890625,0-4.759765625,1.5634765625-8.5849609375,4.6923828125-11.4755859375,2.9912109375-2.787109375,6.884765625-4.181640625,11.6787109375-4.181640625,3.603515625,0,6.38330078125,.986328125,8.33837890625,2.9580078125,1.955078125,1.97265625,2.9326171875,4.7607421875,2.9326171875,8.3642578125,0,1.49609375-.2041015625,3.162109375-.61181640625,4.998046875Zm-6.9873046875-5.048828125c.06787109375-.5107421875,.10205078125-.91796875,.10205078125-1.224609375,0-1.427734375-.40771484375-2.5751953125-1.2236328125-3.4423828125-.81640625-.8671875-1.93798828125-1.30078125-3.3662109375-1.30078125-1.564453125,0-2.90673828125,.6298828125-4.02880859375,1.8876953125-.98681640625,1.0537109375-1.70068359375,2.4140625-2.14208984375,4.080078125h10.65869140625Z"/><path d="M162.7060546875,84.4169921875l-2.0908203125,6.32421875c-1.93798828125-.91796875-3.80859375-1.376953125-5.6103515625-1.376953125-2.345703125,0-4.28369140625,.6806640625-5.81396484375,2.0400390625-1.52978515625,1.3603515625-2.294921875,3.1962890625-2.294921875,5.5078125,0,2.0068359375,.6201171875,3.5791015625,1.861328125,4.7177734375,1.24072265625,1.1396484375,2.8818359375,1.7080078125,4.921875,1.7080078125,1.6318359375,0,3.36572265625-.408203125,5.20166015625-1.2236328125l-1.07080078125,6.935546875c-2.75390625,.7138671875-5.2529296875,1.0712890625-7.4970703125,1.0712890625-3.84228515625,0-6.97021484375-1.087890625-9.3837890625-3.263671875-2.41455078125-2.17578125-3.62109375-5.1513671875-3.62109375-8.92578125,0-4.724609375,1.6142578125-8.482421875,4.8447265625-11.2705078125,3.06005859375-2.65234375,6.9873046875-3.9775390625,11.78125-3.9775390625,2.9912109375,0,5.916015625,.578125,8.77197265625,1.7333984375Z"/><path d="M186.77734375,83.294921875l-2.0400390625,7.650390625c-1.7001953125-.4755859375-3.0263671875-.7138671875-3.97802734375-.7138671875-2.21044921875,0-3.91015625,.8330078125-5.099609375,2.4990234375-.8505859375,1.1904296875-1.5478515625,3.0595703125-2.09130859375,5.609375l-2.44775390625,11.322265625h-9.18017578125l5.35498046875-26.31640625h8.31298828125l-.96875,4.7939453125c2.515625-3.6025390625,5.40576171875-5.4052734375,8.669921875-5.4052734375,1.02001953125,0,2.17529296875,.1865234375,3.4677734375,.560546875Z"/><path d="M213.29736328125,98.9013671875h-18.81884765625c.33935546875,3.7734375,2.5830078125,5.6611328125,6.73193359375,5.6611328125,2.92333984375,0,5.8984375-.6630859375,8.9248046875-1.9892578125l-1.02001953125,6.4765625c-3.162109375,.986328125-6.392578125,1.4794921875-9.68994140625,1.4794921875-3.9443359375,0-7.0888671875-1.0537109375-9.43505859375-3.162109375-2.482421875-2.2099609375-3.72314453125-5.2529296875-3.72314453125-9.12890625,0-4.759765625,1.5634765625-8.5849609375,4.6923828125-11.4755859375,2.9912109375-2.787109375,6.884765625-4.181640625,11.6787109375-4.181640625,3.603515625,0,6.38330078125,.986328125,8.33837890625,2.9580078125,1.955078125,1.97265625,2.9326171875,4.7607421875,2.9326171875,8.3642578125,0,1.49609375-.2041015625,3.162109375-.61181640625,4.998046875Zm-6.9873046875-5.048828125c.06787109375-.5107421875,.10205078125-.91796875,.10205078125-1.224609375,0-1.427734375-.40771484375-2.5751953125-1.2236328125-3.4423828125-.81640625-.8671875-1.93798828125-1.30078125-3.3662109375-1.30078125-1.564453125,0-2.90673828125,.6298828125-4.02880859375,1.8876953125-.98681640625,1.0537109375-1.70068359375,2.4140625-2.14208984375,4.080078125h10.65869140625Zm-8.77197265625-14.6376953125l4.89599609375-6.7314453125h9.537109375v1.1220703125l-8.4150390625,6.2216796875h-6.01806640625v-.6123046875Z"/><path d="M234.71630859375,74.67578125l-1.88671875,8.7724609375h6.47705078125l-1.326171875,6.2724609375h-6.47705078125c-.4765625,1.8974609375-.9521484375,3.77734375-1.427734375,5.640625-.57861328125,2.337890625-.8671875,4.251953125-.8671875,5.7421875,0,1.7958984375,.95166015625,2.693359375,2.85595703125,2.693359375,.78173828125,0,1.78515625-.15234375,3.0087890625-.458984375l-1.32568359375,6.2265625c-2.17626953125,.37109375-3.859375,.556640625-5.04931640625,.556640625-2.6181640625,0-4.67529296875-.6611328125-6.1708984375-1.984375-1.5986328125-1.3896484375-2.39697265625-3.3740234375-2.39697265625-5.9521484375,0-1.6953125,.28857421875-3.7802734375,.8671875-6.2568359375,.4755859375-2.068359375,.96875-4.1376953125,1.47900390625-6.20703125h-5.35498046875l1.32568359375-6.2724609375h5.35498046875l1.326171875-6.2216796875,9.587890625-2.55078125Z"/><path d="M264.142578125,109.662109375h-7.5986328125l.509765625-3.9775390625c-2.03955078125,3.0263671875-5.06640625,4.5380859375-9.07763671875,4.5380859375-2.5166015625,0-4.5732421875-.662109375-6.1708984375-1.98828125-1.734375-1.4287109375-2.60107421875-3.3662109375-2.60107421875-5.814453125,0-3.5009765625,1.73779296875-6.0517578125,5.21533203125-7.6494140625,2.625-1.224609375,6.0673828125-1.8359375,10.328125-1.8359375,1.39794921875,0,2.7958984375,.068359375,4.193359375,.203125v-.8662109375c.169921875-2.7197265625-1.51318359375-4.080078125-5.048828125-4.080078125-3.06005859375,0-5.916015625,.6630859375-8.568359375,1.98828125l1.0712890625-6.119140625c2.85595703125-1.0205078125,5.7626953125-1.5302734375,8.720703125-1.5302734375,3.26416015625,0,5.96728515625,.578125,8.109375,1.7333984375,2.72021484375,1.4287109375,4.07958984375,3.638671875,4.07958984375,6.630859375,0,2.2783203125-.458984375,5.4052734375-1.376953125,9.3837890625-1.0546875,4.419921875-1.6494140625,7.5478515625-1.78515625,9.3837890625Zm-6.32373046875-11.9853515625c-.61181640625-.0673828125-1.47900390625-.1015625-2.60107421875-.1015625-4.96435546875,0-7.44580078125,1.3603515625-7.44580078125,4.080078125,0,.91796875,.32275390625,1.640625,.96875,2.1669921875,.6455078125,.5283203125,1.44482421875,.791015625,2.3974609375,.791015625,1.80126953125,0,3.33154296875-.73046875,4.58984375-2.193359375,1.1220703125-1.2568359375,1.818359375-2.837890625,2.0908203125-4.7431640625Z"/><path d="M294.7939453125,83.294921875l-2.0400390625,7.650390625c-1.701171875-.4755859375-3.0263671875-.7138671875-3.978515625-.7138671875-2.2099609375,0-3.91015625,.8330078125-5.099609375,2.4990234375-.8505859375,1.1904296875-1.5478515625,3.0595703125-2.0908203125,5.609375l-2.4482421875,11.322265625h-9.1796875l5.3544921875-26.31640625h8.3134765625l-.9697265625,4.7939453125c2.515625-3.6025390625,5.40625-5.4052734375,8.669921875-5.4052734375,1.0205078125,0,2.17578125,.1865234375,3.46875,.560546875Z"/><path d="M299.4853515625,83.3974609375h8.9248046875l-5.7119140625,26.2646484375h-8.92578125l5.712890625-26.2646484375Zm1.8359375-9.12890625h8.9755859375l-.91796875,4.69140625h-8.9248046875l.8671875-4.69140625Z"/><path d="M335.337890625,109.662109375h-7.5986328125l.509765625-3.9775390625c-2.0400390625,3.0263671875-5.06640625,4.5380859375-9.078125,4.5380859375-2.5166015625,0-4.5732421875-.662109375-6.1708984375-1.98828125-1.734375-1.4287109375-2.6015625-3.3662109375-2.6015625-5.814453125,0-3.5009765625,1.73828125-6.0517578125,5.2158203125-7.6494140625,2.625-1.224609375,6.0673828125-1.8359375,10.328125-1.8359375,1.3984375,0,2.7958984375,.068359375,4.193359375,.203125v-.8662109375c.169921875-2.7197265625-1.513671875-4.080078125-5.048828125-4.080078125-3.060546875,0-5.916015625,.6630859375-8.568359375,1.98828125l1.0712890625-6.119140625c2.85546875-1.0205078125,5.7626953125-1.5302734375,8.720703125-1.5302734375,3.2646484375,0,5.966796875,.578125,8.109375,1.7333984375,2.7197265625,1.4287109375,4.080078125,3.638671875,4.080078125,6.630859375,0,2.2783203125-.458984375,5.4052734375-1.376953125,9.3837890625-1.0546875,4.419921875-1.6494140625,7.5478515625-1.78515625,9.3837890625Zm-6.32421875-11.9853515625c-.6123046875-.0673828125-1.478515625-.1015625-2.6005859375-.1015625-4.96484375,0-7.4462890625,1.3603515625-7.4462890625,4.080078125,0,.91796875,.322265625,1.640625,.96875,2.1669921875,.6455078125,.5283203125,1.4453125,.791015625,2.3974609375,.791015625,1.8017578125,0,3.3310546875-.73046875,4.58984375-2.193359375,1.1220703125-1.2568359375,1.818359375-2.837890625,2.0908203125-4.7431640625Z"/><path d="M359.6142578125,74.67578125l-1.8876953125,8.7724609375h6.4775390625l-1.326171875,6.2724609375h-6.4765625c-.4765625,1.8974609375-.953125,3.77734375-1.4287109375,5.640625-.578125,2.337890625-.8671875,4.251953125-.8671875,5.7421875,0,1.7958984375,.9521484375,2.693359375,2.8564453125,2.693359375,.78125,0,1.78515625-.15234375,3.0087890625-.458984375l-1.326171875,6.2265625c-2.17578125,.37109375-3.859375,.556640625-5.048828125,.556640625-2.6181640625,0-4.6748046875-.6611328125-6.1708984375-1.984375-1.5986328125-1.3896484375-2.396484375-3.3740234375-2.396484375-5.9521484375,0-1.6953125,.2880859375-3.7802734375,.8662109375-6.2568359375,.4765625-2.068359375,.9697265625-4.1376953125,1.4794921875-6.20703125h-5.35546875l1.326171875-6.2724609375h5.35546875l1.326171875-6.2216796875,9.587890625-2.55078125Z"/><path d="M100.94580078125,125.2685546875h9.02685546875l-7.44580078125,35.3935546875h-8.16015625l.96923828125-4.3857421875c-2.55029296875,3.4345703125-5.74658203125,5.150390625-9.58837890625,5.150390625-3.2978515625,0-5.86474609375-1.138671875-7.70068359375-3.4169921875-1.70068359375-2.107421875-2.55029296875-4.861328125-2.55029296875-8.26171875,0-4.4541015625,1.18994140625-8.1767578125,3.5703125-11.1689453125,2.5498046875-3.2294921875,6.00048828125-4.8447265625,10.35302734375-4.8447265625,3.943359375,0,6.81640625,1.716796875,8.61865234375,5.150390625l2.9072265625-13.6162109375Zm-4.58984375,20.603515625c0-1.49609375-.4423828125-2.76171875-1.326171875-3.7998046875-.884765625-1.0361328125-2.07421875-1.5546875-3.56982421875-1.5546875-2.07421875,0-3.74072265625,1.037109375-4.998046875,3.1103515625-1.05419921875,1.734375-1.5810546875,3.7060546875-1.5810546875,5.916015625,0,1.427734375,.40771484375,2.6357421875,1.22412109375,3.62109375,.81591796875,.986328125,1.92041015625,1.4794921875,3.31494140625,1.4794921875,2.0732421875,0,3.79052734375-.9697265625,5.15087890625-2.9072265625,1.18994140625-1.734375,1.78515625-3.6884765625,1.78515625-5.865234375Z"/><path d="M114.052734375,134.4482421875h9.18017578125c-.6123046875,2.6181640625-1.24169921875,5.2529296875-1.88720703125,7.9052734375-.7822265625,3.3994140625-1.1728515625,6.017578125-1.1728515625,7.853515625,0,2.6181640625,1.1552734375,3.9267578125,3.4677734375,3.9267578125,3.50146484375,0,5.865234375-2.8720703125,7.08935546875-8.619140625l2.345703125-11.06640625h9.18017578125l-5.60986328125,26.2138671875h-8.2109375l1.02001953125-4.4365234375c-2.99267578125,3.3994140625-6.32421875,5.099609375-9.99609375,5.099609375-2.78857421875,0-4.91357421875-.81640625-6.375-2.4482421875-1.46240234375-1.6318359375-2.193359375-3.8583984375-2.193359375-6.6806640625,0-2.4140625,.3740234375-5.40625,1.1220703125-8.9765625,.6796875-2.923828125,1.359375-5.8466796875,2.0400390625-8.771484375Z"/><path d="M195.19287109375,126.54296875l-2.345703125,7.19140625c-2.4482421875-1.5302734375-5.2529296875-2.294921875-8.4150390625-2.294921875-4.25048828125,0-7.57373046875,1.2158203125-9.970703125,3.646484375s-3.59521484375,5.771484375-3.59521484375,10.021484375c0,2.8896484375,.96875,5.150390625,2.90673828125,6.7822265625,1.8359375,1.5302734375,4.23291015625,2.2958984375,7.19091796875,2.2958984375,2.7197265625,0,5.54150390625-.7314453125,8.46630859375-2.193359375l-.91796875,8.16015625c-3.4345703125,.8837890625-6.66455078125,1.326171875-9.68994140625,1.326171875-5.40625,0-9.67333984375-1.4111328125-12.80126953125-4.2333984375-3.26416015625-2.923828125-4.89599609375-7.0546875-4.89599609375-12.392578125,0-6.32421875,2.12451171875-11.35546875,6.375-15.0966796875,4.0458984375-3.53515625,9.2646484375-5.3037109375,15.6572265625-5.3037109375,3.73974609375,0,7.751953125,.697265625,12.03564453125,2.0908203125Z"/><path d="M210.951171875,133.734375c4.080078125,0,7.32666015625,1.01953125,9.7412109375,3.0595703125,2.58349609375,2.2109375,3.8759765625,5.3037109375,3.8759765625,9.2822265625,0,4.7939453125-1.66650390625,8.5859375-4.998046875,11.373046875-3.09423828125,2.65234375-7.0888671875,3.9775390625-11.98486328125,3.9775390625-3.97802734375,0-7.17431640625-.9853515625-9.58837890625-2.9580078125-2.583984375-2.1416015625-3.8759765625-5.150390625-3.8759765625-9.0263671875,0-4.9296875,1.59814453125-8.8056640625,4.79443359375-11.6279296875,3.025390625-2.7197265625,7.03759765625-4.080078125,12.03564453125-4.080078125Zm4.38623046875,11.93359375c0-1.6650390625-.3916015625-3.025390625-1.17333984375-4.080078125-.88427734375-1.2236328125-2.125-1.8359375-3.72265625-1.8359375-2.17626953125,0-3.94482421875,1.0888671875-5.30419921875,3.263671875-1.15625,1.9052734375-1.73388671875,4.0126953125-1.73388671875,6.32421875,0,1.5986328125,.4248046875,2.9580078125,1.27490234375,4.080078125,.95166015625,1.224609375,2.2099609375,1.8359375,3.77392578125,1.8359375,2.17578125,0,3.90966796875-1.1044921875,5.2021484375-3.314453125,1.1220703125-1.8701171875,1.68310546875-3.9609375,1.68310546875-6.2734375Z"/><path d="M254.86181640625,160.662109375h-9.12890625c.6455078125-2.6181640625,1.27490234375-5.2353515625,1.88720703125-7.853515625,.78173828125-3.3662109375,1.1728515625-6.0009765625,1.1728515625-7.9052734375,0-2.583984375-1.10546875-3.8759765625-3.31494140625-3.8759765625-3.6044921875,0-6.01806640625,2.85546875-7.2421875,8.5673828125l-2.345703125,11.0673828125h-9.18017578125l5.60986328125-26.46875h8.2109375l-1.02001953125,4.69140625c2.99169921875-3.3994140625,6.32421875-5.099609375,9.99609375-5.099609375,2.78759765625,0,4.91259765625,.8251953125,6.375,2.4736328125,1.46142578125,1.6494140625,2.19287109375,3.884765625,2.19287109375,6.7060546875,0,2.4150390625-.39111328125,5.3896484375-1.1728515625,8.9248046875-.6806640625,2.9248046875-1.3603515625,5.8486328125-2.0400390625,8.7724609375Z"/><path d="M285.716796875,135.263671875l-1.98828125,5.763671875c-2.958984375-.986328125-5.271484375-1.4794921875-6.9375-1.4794921875-2.720703125,0-4.080078125,.7998046875-4.080078125,2.3974609375,0,.884765625,.935546875,1.7001953125,2.8046875,2.4482421875,2.822265625,1.12109375,4.5390625,1.88671875,5.15234375,2.294921875,1.869140625,1.2578125,2.8046875,2.9755859375,2.8046875,5.150390625,0,3.1962890625-1.326171875,5.64453125-3.978515625,7.3447265625-2.244140625,1.4619140625-5.048828125,2.1923828125-8.4140625,2.1923828125-3.70703125,0-7.19140625-.560546875-10.45556640625-1.6826171875l1.88720703125-6.32421875c2.4140625,1.1904296875,4.861328125,1.78515625,7.34375,1.78515625,3.060546875,0,4.58984375-.7822265625,4.58984375-2.345703125,0-1.0205078125-.900390625-1.9208984375-2.703125-2.703125-2.787109375-1.1904296875-4.455078125-1.9892578125-4.998046875-2.3974609375-1.802734375-1.2919921875-2.703125-3.09375-2.703125-5.40625,0-2.923828125,1.41015625-5.1669921875,4.234375-6.7314453125,2.310546875-1.2578125,5.048828125-1.88671875,8.2109375-1.88671875,2.787109375,0,5.865234375,.52734375,9.23046875,1.580078125Z"/><path d="M314.8876953125,149.9013671875h-18.818359375c.3388671875,3.7734375,2.5830078125,5.6611328125,6.7314453125,5.6611328125,2.923828125,0,5.8984375-.6630859375,8.92578125-1.9892578125l-1.0205078125,6.4765625c-3.162109375,.986328125-6.392578125,1.4794921875-9.6904296875,1.4794921875-3.9443359375,0-7.0888671875-1.0537109375-9.4345703125-3.162109375-2.482421875-2.2099609375-3.72265625-5.2529296875-3.72265625-9.12890625,0-4.759765625,1.5634765625-8.5849609375,4.69140625-11.4755859375,2.9921875-2.787109375,6.8857421875-4.181640625,11.6796875-4.181640625,3.603515625,0,6.3828125,.986328125,8.337890625,2.9580078125,1.955078125,1.97265625,2.9326171875,4.7607421875,2.9326171875,8.3642578125,0,1.49609375-.2041015625,3.162109375-.6123046875,4.998046875Zm-6.986328125-5.048828125c.0673828125-.5107421875,.1015625-.91796875,.1015625-1.224609375,0-1.427734375-.408203125-2.5751953125-1.2236328125-3.4423828125-.81640625-.8671875-1.9384765625-1.30078125-3.3662109375-1.30078125-1.564453125,0-2.9072265625,.6298828125-4.029296875,1.8876953125-.986328125,1.0537109375-1.7001953125,2.4140625-2.1416015625,4.080078125h10.6591796875Z"/><path d="M324.2216796875,134.3974609375h8.9248046875l-5.7119140625,26.2646484375h-8.92578125l5.712890625-26.2646484375Zm1.8359375-9.12890625h8.9755859375l-.91796875,4.69140625h-8.9248046875l.8671875-4.69140625Z"/><path d="M342.6318359375,125.3193359375h9.078125l-7.6494140625,35.3427734375h-9.078125l7.6494140625-35.3427734375Z"/><path d="M392.662109375,160.662109375h-7.5986328125l.509765625-3.9775390625c-2.0400390625,3.0263671875-5.06640625,4.5380859375-9.078125,4.5380859375-2.5166015625,0-4.5732421875-.662109375-6.1708984375-1.98828125-1.734375-1.4287109375-2.6015625-3.3662109375-2.6015625-5.814453125,0-3.5009765625,1.73828125-6.0517578125,5.2158203125-7.6494140625,2.625-1.224609375,6.0673828125-1.8359375,10.328125-1.8359375,1.3984375,0,2.7958984375,.068359375,4.193359375,.203125v-.8662109375c.169921875-2.7197265625-1.513671875-4.080078125-5.048828125-4.080078125-3.060546875,0-5.916015625,.6630859375-8.568359375,1.98828125l1.0712890625-6.119140625c2.85546875-1.0205078125,5.7626953125-1.5302734375,8.720703125-1.5302734375,3.2646484375,0,5.966796875,.578125,8.109375,1.7333984375,2.7197265625,1.4287109375,4.080078125,3.638671875,4.080078125,6.630859375,0,2.2783203125-.458984375,5.4052734375-1.376953125,9.3837890625-1.0546875,4.419921875-1.6494140625,7.5478515625-1.78515625,9.3837890625Zm-6.32421875-11.9853515625c-.6123046875-.0673828125-1.478515625-.1015625-2.6005859375-.1015625-4.96484375,0-7.4462890625,1.3603515625-7.4462890625,4.080078125,0,.91796875,.322265625,1.640625,.96875,2.1669921875,.6455078125,.5283203125,1.4453125,.791015625,2.3974609375,.791015625,1.8017578125,0,3.3310546875-.73046875,4.58984375-2.193359375,1.1220703125-1.2568359375,1.818359375-2.837890625,2.0908203125-4.7431640625Z"/><path d="M403.2705078125,134.4482421875h9.1796875c-.6123046875,2.6181640625-1.2412109375,5.2529296875-1.88671875,7.9052734375-.783203125,3.3994140625-1.173828125,6.017578125-1.173828125,7.853515625,0,2.6181640625,1.15625,3.9267578125,3.46875,3.9267578125,3.5009765625,0,5.8642578125-2.8720703125,7.0888671875-8.619140625l2.345703125-11.06640625h9.1796875l-5.609375,26.2138671875h-8.2109375l1.01953125-4.4365234375c-2.9921875,3.3994140625-6.32421875,5.099609375-9.99609375,5.099609375-2.7880859375,0-4.9130859375-.81640625-6.375-2.4482421875s-2.1923828125-3.8583984375-2.1923828125-6.6806640625c0-2.4140625,.373046875-5.40625,1.1220703125-8.9765625,.6796875-2.923828125,1.359375-5.8466796875,2.0400390625-8.771484375Z"/><path d="M452.9951171875,125.2685546875h27.38671875l-1.478515625,6.833984375h-9.02734375l-6.0693359375,28.5595703125h-9.537109375l6.0693359375-28.5595703125h-8.7724609375l1.4287109375-6.833984375Z"/><path d="M498.1298828125,134.294921875l-2.0400390625,7.650390625c-1.701171875-.4755859375-3.0263671875-.7138671875-3.978515625-.7138671875-2.2099609375,0-3.91015625,.8330078125-5.099609375,2.4990234375-.8505859375,1.1904296875-1.5478515625,3.0595703125-2.0908203125,5.609375l-2.4482421875,11.322265625h-9.1796875l5.3544921875-26.31640625h8.3134765625l-.9697265625,4.7939453125c2.515625-3.6025390625,5.40625-5.4052734375,8.669921875-5.4052734375,1.0205078125,0,2.17578125,.1865234375,3.46875,.560546875Z"/><path d="M524.6494140625,149.9013671875h-18.818359375c.3388671875,3.7734375,2.5830078125,5.6611328125,6.7314453125,5.6611328125,2.923828125,0,5.8984375-.6630859375,8.92578125-1.9892578125l-1.0205078125,6.4765625c-3.162109375,.986328125-6.392578125,1.4794921875-9.6904296875,1.4794921875-3.9443359375,0-7.0888671875-1.0537109375-9.4345703125-3.162109375-2.482421875-2.2099609375-3.72265625-5.2529296875-3.72265625-9.12890625,0-4.759765625,1.5634765625-8.5849609375,4.69140625-11.4755859375,2.9921875-2.787109375,6.8857421875-4.181640625,11.6796875-4.181640625,3.603515625,0,6.3828125,.986328125,8.337890625,2.9580078125,1.955078125,1.97265625,2.9326171875,4.7607421875,2.9326171875,8.3642578125,0,1.49609375-.2041015625,3.162109375-.6123046875,4.998046875Zm-6.986328125-5.048828125c.0673828125-.5107421875,.1015625-.91796875,.1015625-1.224609375,0-1.427734375-.408203125-2.5751953125-1.2236328125-3.4423828125-.81640625-.8671875-1.9384765625-1.30078125-3.3662109375-1.30078125-1.564453125,0-2.9072265625,.6298828125-4.029296875,1.8876953125-.986328125,1.0537109375-1.7001953125,2.4140625-2.1416015625,4.080078125h10.6591796875Zm-8.7724609375-14.6376953125l4.896484375-6.7314453125h9.537109375v1.1220703125l-8.4150390625,6.2216796875h-6.0185546875v-.6123046875Z"/><path d="M552.1376953125,135.263671875l-1.98828125,5.763671875c-2.9580078125-.986328125-5.2705078125-1.4794921875-6.9365234375-1.4794921875-2.720703125,0-4.080078125,.7998046875-4.080078125,2.3974609375,0,.884765625,.9345703125,1.7001953125,2.8046875,2.4482421875,2.822265625,1.12109375,4.5390625,1.88671875,5.1513671875,2.294921875,1.869140625,1.2578125,2.8046875,2.9755859375,2.8046875,5.150390625,0,3.1962890625-1.3251953125,5.64453125-3.9775390625,7.3447265625-2.244140625,1.4619140625-5.048828125,2.1923828125-8.4150390625,2.1923828125-3.7060546875,0-7.19140625-.560546875-10.455078125-1.6826171875l1.88671875-6.32421875c2.4140625,1.1904296875,4.8623046875,1.78515625,7.3447265625,1.78515625,3.0595703125,0,4.58984375-.7822265625,4.58984375-2.345703125,0-1.0205078125-.9013671875-1.9208984375-2.703125-2.703125-2.7880859375-1.1904296875-4.455078125-1.9892578125-4.998046875-2.3974609375-1.802734375-1.2919921875-2.703125-3.09375-2.703125-5.40625,0-2.923828125,1.41015625-5.1669921875,4.2333984375-6.7314453125,2.3115234375-1.2578125,5.048828125-1.88671875,8.2109375-1.88671875,2.787109375,0,5.865234375,.52734375,9.23046875,1.580078125Z"/><path d="M571.1103515625,133.734375c4.080078125,0,7.326171875,1.01953125,9.740234375,3.0595703125,2.583984375,2.2109375,3.8759765625,5.3037109375,3.8759765625,9.2822265625,0,4.7939453125-1.666015625,8.5859375-4.998046875,11.373046875-3.09375,2.65234375-7.0888671875,3.9775390625-11.984375,3.9775390625-3.978515625,0-7.1748046875-.9853515625-9.587890625-2.9580078125-2.5849609375-2.1416015625-3.8759765625-5.150390625-3.8759765625-9.0263671875,0-4.9296875,1.59765625-8.8056640625,4.7939453125-11.6279296875,3.025390625-2.7197265625,7.0380859375-4.080078125,12.0361328125-4.080078125Zm4.3857421875,11.93359375c0-1.6650390625-.3916015625-3.025390625-1.1728515625-4.080078125-.884765625-1.2236328125-2.1259765625-1.8359375-3.7236328125-1.8359375-2.17578125,0-3.9443359375,1.0888671875-5.3037109375,3.263671875-1.15625,1.9052734375-1.734375,4.0126953125-1.734375,6.32421875,0,1.5986328125,.4248046875,2.9580078125,1.275390625,4.080078125,.951171875,1.224609375,2.2099609375,1.8359375,3.7744140625,1.8359375,2.1748046875,0,3.9091796875-1.1044921875,5.201171875-3.314453125,1.1220703125-1.8701171875,1.68359375-3.9609375,1.68359375-6.2734375Z"/><path d="M611.9609375,134.294921875l-2.0400390625,7.650390625c-1.701171875-.4755859375-3.0263671875-.7138671875-3.978515625-.7138671875-2.2099609375,0-3.91015625,.8330078125-5.099609375,2.4990234375-.8505859375,1.1904296875-1.5478515625,3.0595703125-2.0908203125,5.609375l-2.4482421875,11.322265625h-9.1796875l5.3544921875-26.31640625h8.3134765625l-.9697265625,4.7939453125c2.515625-3.6025390625,5.40625-5.4052734375,8.669921875-5.4052734375,1.0205078125,0,2.17578125,.1865234375,3.46875,.560546875Z"/></g><g id="Logo_Québec_et_drapeau_fleurdelisé"><path d="M377.329249836150666,258.273545966734673v-47.83944883609729h-.984190447678884c-1.610185571010334,1.470274411292849-7.614638804007882,1.594648294536455-10.16035463323351,1.594648294536455h-4.403275790820771v.368676338699515c5.095924084457693,3.082695329441776,4.385282809976161,7.64010750770467,4.385282809976161,13.325766636715343l.018772201355205,21.069055914127603c0,10.094564607541543-9.890098486674106,17.175281410305615-17.862192501261234,17.175281410305615-10.476283833046182,0-14.846869738095847-7.480376504880041-14.846869738095847-19.535518316861271v-33.99791027752326h.328412654094791c-1.774377054409342,1.470274411292849-8.347399114704785,1.594648294536455-11.111890919160032,1.594648294536455h-4.764342606666105v.368676338699515c5.553494382244935,3.082695329441776,4.783944883608456,7.64010750770467,4.783944883608456,13.325766636715343v21.066984662826144c0,18.43017104955652,7.995504835681459,27.188488773726931,22.300759555399964,27.188488773726931,8.466376236935503,0,17.177612913244957-2.999503828727029,21.552068544358917-10.189781405428221v8.836500185851037h15.149158798099052v-.538446524440587c-5.298806342781972-2.999649848236004-4.588847684733992-7.856506774303853-4.588847684733992-13.888789041620839m24.353625898922473-25.438971797353588c1.45752304331927-8.19034732912769,7.503893771368894-13.399817258130497,15.609576507894417-13.399817258130497,8.73103763297695,0,14.297865383294265,4.297339426208055,15.628458451813458,13.399817258130497h-31.238034959707875Zm43.816491677743215,7.574579399049981c.482210914284224-16.760718069042923-10.735286503987481-29.401479100091819-27.116792281824928-29.401479100091819-17.959206752063437,0-30.122421003129602,13.038708604603016-30.122421003129602,31.10564474455532,0,18.202692734903394,14.092106366738335,32.060677731331452,34.574779384359317,32.060677731331452,5.674288882138171,0,11.446936482323508-.898869540926171,16.648379062700769-3.202297698853727l6.016054837894444-12.224090289771993h-.355806817216944c-5.557249397592386,4.709842824307998-12.53775029332337,6.943042445653191-19.761755343838558,6.943042445653191-13.614559586763789,0-23.867586717930863-9.307334527642524-24.120407026698558-25.281497832822424h44.237969187754061Zm9.795652712925403-57.407330778746655c2.857364143336781,0,8.664401097070368-.183849333598118,10.409283354352738-1.993318192744482h.730153651231376v82.580490439410823c3.299512052173668,.902732112539525,6.684476830232597,1.551555610676587,10.083691919107878,1.551555610676587,13.359469832921604,0,21.007709925264862-9.238836612481464,21.007709925264862-22.135551044686508,0-12.647544553083208-5.943878349384249-22.398851966239818-18.220914228410038-22.398851966239818-3.87871347829423,0-6.912358955762102,1.043774880472483-10.183394955807671,2.863327566279622l6.546813913859296-11.119500125796549c2.786795696854824-1.05788159050644,5.697003999268418-1.443419374836594,8.621462612492905-1.443419374836594,13.84371013611235,0,25.627021884407441,11.895280972687033,25.627021884407441,29.752313704073458,0,20.457028960605385-13.971913794443026,33.664109262852435-36.071541501147294,33.664109262852435-8.255917570591919,0-16.184249978948174-1.443434582586633-22.161346294230498-2.350875014903067v-.501737053275065c3.955598106021171-1.824228603600204,3.587958662706114-6.10559643972374,3.587958662706114-10.354378873500536v-59.453409064512016c0-6.197679624920056,.72009838282338-14.877326818359506-4.385282809976161-18.259194011832733v-.401569685537652h4.408359976741849l.000023889407203,.000007824572094Zm75.426135708496076,49.832751379696674c1.448142902367181-8.19034732912769,7.503893771370713-13.399817258130497,15.614321326276695-13.399817258130497,8.712240852464674,0,14.269639797024865,4.297339426208055,15.600208533141995,13.399817258130497h-31.21452985941869Zm43.797737049302668,7.574585456366549c.486935621764133-16.760718069041104-10.711856800737223-29.401479100088181-27.11206757434411-29.401479100088181-17.94521434913986,0-30.117781098091655,13.038708604599378-30.117781098091655,31.105638687236933,0,18.202692734901575,14.087405888525609,32.060677731329633,34.584156111512129,32.060677731329633,5.664948498890226,0,11.446924367692191-.898869540926171,16.629637723028281-3.202297698853727l6.016030608625442-12.224090289771993h-.360289232005016c-5.53384392361113,4.709842824307998-12.533098273650467,6.943042445653191-19.757030636359559,6.943042445653191-13.623924199280737,0-23.867598832564909-9.307334527642524-24.10170203092639-25.281497832822424h44.219215733444798l-.000169604883922,.000006057316568Zm54.171125443690471-14.750502781782416h-.356943891045375c-3.503762206759347-4.325681117465138-9.308882779481792-6.425117648974265-14.752392574737314-6.425117648974265-11.73712211999009,0-20.177113290814304,8.909681690300204-20.177113290814304,21.332526203626912,0,15.04829018845885,11.718308734109087,25.005347586295102,25.132155640754718,25.005347586295102,6.176210963227277,0,12.93478615427739-2.616087595595673,17.664383860741509-6.425141955676736h.352106857724721l-6.28894543831484,12.36650158248267c-5.077134904571722,2.061852296470533-10.642761561153748,2.573787860736047-15.968821381502494,2.573787860736047-18.61314728594698,0-33.158884296391989-13.099141983702793-33.158884296391989-30.105980993190315,0-22.506709965604387,16.245966376101933-33.266903271638512,34.492763078062126-33.266903271638512,4.353840429543197,0,8.825130833991352,.516641949072437,13.061594208724273,1.549922808881092v13.395057827458004h.000097226798971Zm-198.135147822978979-25.5143727125851v-13.259628075486035c-7.987980285763115,3.570709989715397-15.389530165759425,10.253378113082363-20.331765755342531,16.765788793420143v5.136148993178722c11.847193866972702-7.987986404734329,20.331765755342531-8.36634409682847,20.331765755342531-8.730505764993723"/><path d="M268.318741317614695,265.130861101019036c-18.234801406927545,0-30.919879327056151-20.561623155395864-30.919879327056151-38.050535918342575v-1.956238486629445c.22968290009976-16.935332165146974,11.193267249564997-32.815133875612446,30.314707440515122-32.815133875612446,20.13940308308338,0,30.507012451919763,19.041686128119181,30.680589825510651,37.070079893124785v1.8858740383439c0,19.22466222060757-11.953246384937302,33.865954349115782-30.075417938969622,33.865954349115782m62.752916422584349,20.212537539409823c-13.523908428258437,2.218688283222946-26.51082196212792-2.044348235454891-40.326780138308095-17.843447309491239,13.344912161637694-6.693649799488412,21.602454231890079-23.373609186888643,21.602454231890079-38.866507020626159v-1.93131303773589c-.259267285607166-26.510815867624842-20.165748651218564-44.010403852667878-43.902027921027184-44.010403852667878-23.79284257762265,.000001523630999-44.8159014555049,18.225010427038796-44.99961449939201,44.943092026140221v1.794710302970998c0,25.997358037646336,19.294300115164333,45.282234186463029,42.926984610033287,45.282234186463029,3.391577013660026,0,6.670100546019057-.518156710526455,9.948621031115181-1.309506701523787,15.483445221891088,14.51311724786683,29.294698423002046,20.683899267232846,41.212321048637023,19.251880378047645,5.666758517631934-.668898748612264,11.63970608650834-2.934636782543748,15.233831667516824-7.598071555372371l-1.695790030465105,.287174126086029v.000158457709404Z"/><path class="cls-1" d="M665.163315675994454,206.048814320660313h73.353772872709669v-45.048814320660313h-73.353821548686028v45.048814320660313h.000048675976359Zm54.377841280755092-18.929487208146384c-.889720310804478,2.758133478926538-2.447900257102447,3.68215416741441-2.890421607746248,3.68215416741441,0,0,.720254415902673-3.027444516865216-1.496981221740498-4.582958542483539-2.090160579007716-1.453361045058045-4.674539838882993-.571127618071841-5.87025377246573,1.160830689910654-1.125111264889711,1.662307865830371-1.303981103934348,3.91896416884083-1.303981103934348,3.91896416884083h3.827210364350321v2.790634515438796h-7.692085230359226s.19285394250619,3.937539622613258,4.406259442863302,3.552144013789075c0,0-.508397684719966,3.111028051240282-4.406259442863302,1.481218218126742,0,0,.19285394250619,3.26890138552335-2.480887149240516,4.889420487959796-2.673887267043028-1.620519102436447-2.466708145382654-4.889420487959796-2.466708145382654-4.889420487959796-3.897861758145154,1.629806829319932-4.425067331139871-1.481218218126742-4.425067331139871-1.481218218126742,4.217936934577665,.385398612615973,4.425067331139871-3.552141009995466,4.425067331139871-3.552141009995466h-7.692085230361045v-2.790634515438796h3.822532754833446s-.174387129924071-2.256656303012278-1.308707438553029-3.91896416884083c-1.200440268205057-1.731959809880209-3.780141918556183-2.614191734972337-5.860849828328355-1.160832191810186-2.221961972261852,1.555512523724246-1.496981221740498,4.582960044381252-1.496981221740498,4.582960044381252-.428391071885926,0-2.000701296938132-.924020688487872-2.890421607748067-3.68215416741441-1.666495841742289-5.242313558375827,3.582415466131351-10.289605878720067,8.90660705222399-7.373596061715944,3.7472037515181,2.043059611210992,5.295979753673237,6.663169061235749,5.295979753673237,11.552589549191907h2.043092133215396c-.065925059176152,.371464018497136,.470733183059565-3.654299998137503-.32952784567351-6.658528201583977-.579000353416632-2.061635064981601-1.318111382694042-4.239357704643226-2.59383192911082-6.862832660810454-1.12038493027103-2.279871114532398-1.525241779258067-6.119900118127589,.828521586250645-9.008049758269408,2.010105241080964-2.498105662188209,3.201092840045021-3.886460128537692,3.742428691799432-4.875487395735036,.541384576858036,.98902689172337,1.741776119961287,2.377381733546827,3.770737974418807,4.875487395735036,2.339633086749018,2.888149640141819,1.925372293624605,6.72817864373701,.804987363353575,9.008049758269408-1.266316602277584,2.623476458064033-2.005378906458645,4.801197595828853-2.574975315734264,6.862832660810454-.809713697974075,3.004228203446473-.27305545573472,7.029992220081112-.334449080688501,6.658528201583977h2.028961854455702c0-4.889420487956158,1.558179946294331-9.509529937980915,5.291253419054556-11.552589549191907,5.324191586090819-2.916008315109138,10.577780503488611,2.131284005236921,8.920737330981865,7.373596061715944m40.105118944760761,18.929484204354594h73.353821548686028v-45.048814320660313h-73.353821548686028v45.048814320660313Zm54.764198323578967-18.929487208146384c-.885197628387687,2.758133478926538-2.448463560682285,3.682154167412591-2.886359320804331,3.682154167412591,0,0,.710965314263376-3.027444516863397-1.487919594492269-4.58295854248172-2.104775090971089-1.453361045061683-4.680342952422507-.571127618075479-5.890465570540982,1.160830689910654-1.111236641798314,1.662307865830371-1.294875064071675,3.91896416884083-1.294875064071675,3.91896416884083h3.837545915161172v2.790634515438796h-7.707988840684266s.193239475667724,3.937539622611439,4.430813036804466,3.552141009993647c0,0-.517920783839145,3.111028051240282-4.430813036804466,1.481218218128561,0,0,.193239475667724,3.26890138552335-2.472003199207393,4.889420487957977-2.679181260007681-1.620519102434628-2.476730621436218-4.889420487957977-2.476730621436218-4.889420487957977-3.898758722587445,1.629806829318113-4.416679506428409-1.481218218128561-4.416679506428409-1.481218218128561,4.214228867856946,.385398612617792,4.416679506428409-3.552141009993647,4.416679506428409-3.552141009993647h-7.675043094015564v-2.790634515438796h3.823412384786934s-.178959736356774-2.256656303010459-1.327869547050796-3.91896416884083c-1.195940351435638-1.73195980987839-3.781011793658763-2.614191734972337-5.84806497941463-1.160832191810186-2.236606813965409,1.555512523727884-1.4973257026395,4.582960044381252-1.4973257026395,4.582960044381252-.44262318235269,0-2.015295222792702-.924020688486053-2.886359320807969-3.682154167412591-1.685642810829449-5.242313558375827,3.56910631062965-10.289605878722796,8.899250506201497-7.373596061717762,3.75279346921161,2.043059611210992,5.287743604441857,6.663169061235749,5.287743604441857,11.552589549191907h2.048240969461403c-.05161175403191,.371464018498955,.466114084563742-3.654299998141141-.334477306814733-6.658528201583977-.579182327575836-2.061635064981601-1.31373601667292-4.239357704643226-2.594477550366719-6.862832660809545-1.120642749943727-2.279871114531488-1.525544027081196-6.119900118129408,.828712243193877-9.008049758271227,2.015295222794521-2.49810566218548,3.211284310538758-3.886460128536783,3.75279346921161-4.875487395735036,.522648206071608,.989026891724279,1.760989148635417,2.377381733549555,3.762150841048424,4.875487395735036,2.326037945837015,2.888149640141819,1.925815354614315,6.728178643739739,.809851290592633,9.008049758271227-1.252474472941685,2.623476458064033-2.010567800563877,4.801197595827944-2.580295283682062,6.862832660809545-.809851290588995,3.004228203442835-.26819592297943,7.029992220082931-.320197567500145,6.658528201583977h2.029428753165121c0-4.889420487956158,1.544404979689716-9.509529937980915,5.268931388147394-11.552589549191907,5.330144195573666-2.91600831510732,10.584942053343184,2.131284005236012,8.932196252870199,7.373596061717762m-149.246914829627713,85.506053505050659h73.353821548686028v-45.048814320658494h-73.353821548686028v45.048814320658494Zm54.377889956731451-19.328138776008927c-.889720310804478,2.753471632729998-2.447900257104266,3.672865490911136-2.890421607748067,3.672865490911136,0,0,.720254415904492-3.013515690423446-1.496981221738679-4.559746332408395-2.090160579007716-1.444059748642758-4.674539838882993-.566472631613578-5.87025377246573,1.142238987693418-1.125111264889711,1.666976969097959-1.303981103934348,3.923621831714627-1.303981103934348,3.923621831714627h3.827210364350321v2.790634515440615h-7.692085230359226s.19285394250619,3.937517361575374,4.406259442863302,3.566056746705726c0,0-.508397684719966,3.097099134834934-4.406259442863302,1.467291056020258,0,0,.19285394250619,3.254978306762496-2.480887149240516,4.889436251598454-2.673887267043028-1.634457944835958-2.466708145382654-4.889436251598454-2.466708145382654-4.889436251598454-3.897861758145154,1.629808078814676-4.425067331139871-1.467291056020258-4.425067331139871-1.467291056020258,4.217936934577665,.371472630027711,4.425067331139871-3.566050739125785,4.425067331139871-3.566050739125785h-7.692085230361045v-2.790634515440615h3.822532754833446s-.174387129924071-2.256644862616668-1.308707438553029-3.923621831718265c-1.200440268205057-1.708711619303358-3.780141918556183-2.586298736332537-5.860849828328355-1.142238987691599-2.221961972261852,1.546230641983129-1.496981221740498,4.559746332406576-1.496981221740498,4.559746332406576-.428391071885926,0-2.000701296938132-.919399865757441-2.890421607748067-3.672865490911136-1.666495841742289-5.237677574248664,3.582415466131351-10.289600810749107,8.90660705222399-7.37360614764475,3.7472037515181,2.047737316017447,5.295979753673237,6.663191927013031,5.295979753673237,11.552592133139115h2.043092133215396c-.065925059176152,.37146662244777,.470733183059565-3.654284049558555-.32952784567351-6.63992457416316-.579000353416632-2.075576436362098-1.318111382694042-4.253317758488265-2.593831929112639-6.876779377529601-1.120384930269211-2.279870162414227-1.525241779256248-6.124528377851675,.828521586252464-8.99409647167704,2.010105241080964-2.502751337398877,3.201092840045021-3.905028375205802,3.742428691799432-4.87084279508781,.541384576858036,.965814419882008,1.741776119961287,2.368097465267056,3.770737974418807,4.87084279508781,2.339633086749018,2.869568093825364,1.925372293624605,6.714226309262813,.804987363353575,8.99409647167704-1.266316602277584,2.623467626621277-2.005378906458645,4.801208948745625-2.574975315734264,6.876779377529601-.809713697974075,2.985640524604605-.27305545573472,7.01139119661093-.334449080688501,6.63992457416316h2.028961854455702c0-4.889400206126084,1.558179946294331-9.504854817121668,5.291253419054556-11.552592133139115,5.324191586090819-2.915994663104357,10.577780503488611,2.135928573396086,8.920737330981865,7.37360614764475m40.105118944760761,19.328132768432624h73.353821548686028v-45.048814320658494h-73.353821548686028v45.048814320658494Zm54.764198323578967-19.328138776008927c-.885197628387687,2.753471632729998-2.448463560682285,3.672865490911136-2.886359320804331,3.672865490911136,0,0,.710965314263376-3.013515690423446-1.487919594492269-4.559746332408395-2.104775090971089-1.444059748642758-4.680342952422507-.566472631613578-5.890465570540982,1.142238987693418-1.111236641798314,1.666976969097959-1.294875064071675,3.923621831714627-1.294875064071675,3.923621831714627h3.837545915161172v2.790634515440615h-7.707988840684266s.193239475667724,3.937517361575374,4.430813036804466,3.566056746705726c0,0-.517920783839145,3.097099134834934-4.430813036804466,1.467291056020258,0,0,.193239475667724,3.254978306762496-2.472003199207393,4.889436251598454-2.679181260007681-1.634457944835958-2.476730621436218-4.889436251598454-2.476730621436218-4.889436251598454-3.898758722587445,1.629808078814676-4.416679506428409-1.467291056020258-4.416679506428409-1.467291056020258,4.214228867856946,.371472630027711,4.416679506428409-3.566050739125785,4.416679506428409-3.566050739125785h-7.675043094015564v-2.790634515440615h3.823412384786934s-.178959736358593-2.256644862616668-1.327869547050796-3.923621831718265c-1.195940351435638-1.708711619303358-3.781011793658763-2.586298736332537-5.84806497941463-1.142238987691599-2.236606813965409,1.546230641983129-1.4973257026395,4.559746332406576-1.4973257026395,4.559746332406576-.44262318235269,0-2.015295222792702-.919399865757441-2.886359320807969-3.672865490911136-1.685642810829449-5.237677574248664,3.56910631062965-10.289600810749107,8.899250506201497-7.37360614764475,3.75279346921161,2.047737316017447,5.287743604441857,6.663191927013031,5.287743604441857,11.552592133139115h2.048240969461403c-.05161175403191,.37146662244777,.466114084563742-3.654284049558555-.334477306814733-6.63992457416316-.579182327575836-2.075576436362098-1.31373601667292-4.253317758488265-2.594477550366719-6.876779377529601-1.120642749943727-2.279870162414227-1.525544027081196-6.124528377851675,.828712243193877-8.99409647167704,2.015295222794521-2.502751337398877,3.211284310538758-3.905028375205802,3.75279346921161-4.87084279508781,.522648206071608,.965814419882008,1.760989148635417,2.368097465267056,3.762150841048424,4.87084279508781,2.326037945837015,2.869568093825364,1.925815354614315,6.714226309262813,.809851290592633,8.99409647167704-1.252474472941685,2.623467626621277-2.010567800563877,4.801208948745625-2.580295283682062,6.876779377529601-.809851290588995,2.985640524604605-.26819592297943,7.01139119661093-.320197567500145,6.63992457416316h2.029428753165121c0-4.889400206126084,1.544404979689716-9.504854817121668,5.268931388147394-11.552592133139115,5.330144195573666-2.915994663104357,10.584942053343184,2.135928573396086,8.932196252870199,7.37360614764475"/></g></svg>